<svg width="297" height="190" viewBox="0 0 297 190" fill="none" xmlns="http://www.w3.org/2000/svg">
<g clip-path="url(#clip0_394_109)">
<path fill-rule="evenodd" clip-rule="evenodd" d="M119.999 13.6666H109.999V36.9999H96.666V46.9999H69.9994V36.9999H59.9994V23.6666H46.666V13.6666H36.666V0.333252H26.666V13.6666H13.3327V107H-0.000643969V153.667H13.3327V163.667H26.666V177H49.9994V190.333H176.666V177H203.333V167H249.999V153.667H273.333V140.333H286.666V117H296.666V83.6666H273.333V96.9999H263.333V120.333H249.999V130.333H226.666V83.6666H213.333V73.6666H199.999V60.3333H179.999V46.9999H166.666V36.9999H156.666V23.6666H143.333V13.6666H129.999V0.333252H119.999V13.6666ZM133.333 143.667H116.666V117H133.333V143.667ZM49.9994 143.667H33.3327V117H49.9994V143.667ZM129.999 33.6666H143.333V46.9999H156.666V60.3333H129.999V46.9999H119.999V23.6666H129.999V33.6666ZM36.666 36.9999H46.666V46.9999H36.666V60.3333H23.3327V23.6666H36.666V36.9999Z" fill="black"/>
<path d="M129.999 33.6666H143.333V46.9999H156.666V60.3333H129.999V46.9999H119.999V23.6666H129.999V33.6666Z" fill="white"/>
<path d="M36.666 36.9999H46.666V46.9999H36.666V60.3333H23.3327V23.6666H36.666V36.9999Z" fill="white"/>
<path d="M133.333 143.667H116.666V117H133.333V143.667Z" fill="white"/>
<path d="M49.9994 143.667H33.3327V117H49.9994V143.667Z" fill="white"/>
</g>
<defs>
<clipPath id="clip0_394_109">
<rect width="297" height="190" fill="white" transform="matrix(-1 0 0 1 297 0)"/>
</clipPath>
</defs>
</svg>
